<svg xmlns="http://www.w3.org/2000/svg" width="15.548" height="16.367" viewBox="0 0 15.548 16.367">
  <path id="Tracé_93" data-name="Tracé 93" d="M166.547-872.226Zm0,8.593a1.576,1.576,0,0,1-1.156-.481,1.576,1.576,0,0,1-.481-1.156h3.273a1.576,1.576,0,0,1-.481,1.156A1.576,1.576,0,0,1,166.547-863.633Zm4.91-7.365v-2.455H169v-1.637h2.455v-2.455h1.637v2.455h2.455v1.637h-2.455V-871ZM160-866.088v-1.637h1.637v-5.728a4.792,4.792,0,0,1,1.023-3.018,4.72,4.72,0,0,1,2.66-1.729v-.573a1.184,1.184,0,0,1,.358-.87,1.184,1.184,0,0,1,.869-.358,1.184,1.184,0,0,1,.869.358,1.184,1.184,0,0,1,.358.87v.573q.286.082.563.174a2.775,2.775,0,0,1,.522.235,4.361,4.361,0,0,0-.552.624,4.525,4.525,0,0,0-.43.726,2.978,2.978,0,0,0-.644-.215,3.29,3.29,0,0,0-.685-.072,3.152,3.152,0,0,0-2.312.962,3.152,3.152,0,0,0-.962,2.312v5.728h6.547v-2.291a4.055,4.055,0,0,0,.777.368,5.66,5.66,0,0,0,.859.225v1.7h1.637v1.637Z" transform="translate(-160 880)" fill="#fff"/>
</svg>
